HIERARCHY
ROOT Hips
{
	OFFSET -14.64140 90.27770 -84.91600
	CHANNELS 6 Xposition Yposition Zposition Zrotation Xrotation Yrotation
	JOINT Spine
	{
		OFFSET 0.00000 13.20850 -1.60436
		CHANNELS 3 Zrotation Xrotation Yrotation
		JOINT Spine1
		{
			OFFSET 0.00000 8.61716 0.00000
			CHANNELS 3 Zrotation Xrotation Yrotation
			JOINT Spine2
			{
				OFFSET 0.00000 8.61717 0.00000
				CHANNELS 3 Zrotation Xrotation Yrotation
				JOINT Spine3
				{
					OFFSET 0.00000 8.61717 0.00000
					CHANNELS 3 Zrotation Xrotation Yrotation
					JOINT Neck
					{
						OFFSET 0.00000 11.07920 1.10792
						CHANNELS 3 Zrotation Xrotation Yrotation
						JOINT Neck1
						{
							OFFSET 0.00000 7.08032 0.00000
							CHANNELS 3 Zrotation Xrotation Yrotation
							JOINT Head
							{
								OFFSET 0.00000 7.08031 0.00000
								CHANNELS 3 Zrotation Xrotation Yrotation
								End site
								{
									OFFSET 0.00000 0.00000 0.00000
								}
							}
						}
					}
					JOINT RightShoulder
					{
						OFFSET -0.01000 7.91373 5.19711
						CHANNELS 3 Zrotation Xrotation Yrotation
						JOINT RightArm
						{
							OFFSET -18.41580 0.00000 0.00000
							CHANNELS 3 Zrotation Xrotation Yrotation
							JOINT RightForeArm
							{
								OFFSET -29.11090 0.00000 0.00000
								CHANNELS 3 Zrotation Xrotation Yrotation
								JOINT RightHand
								{
									OFFSET -24.65040 0.00000 0.00000
									CHANNELS 3 Zrotation Xrotation Yrotation
									JOINT RightHandThumb1
									{
										OFFSET -5.35114 -0.85590 3.97906
										CHANNELS 3 Zrotation Xrotation Yrotation
										JOINT RightHandThumb2
										{
											OFFSET -4.52789 0.00000 0.00000
											CHANNELS 3 Zrotation Xrotation Yrotation
											JOINT RightHandThumb3
											{
												OFFSET -2.46976 0.00000 0.00000
												CHANNELS 3 Zrotation Xrotation Yrotation
												End site
												{
													OFFSET 0.00000 0.00000 0.00000
												}
											}
										}
									}
									JOINT RightHandIndex1
									{
										OFFSET -14.26970 0.00000 2.88139
										CHANNELS 3 Zrotation Xrotation Yrotation
										JOINT RightHandIndex2
										{
											OFFSET -5.48836 0.00000 0.00000
											CHANNELS 3 Zrotation Xrotation Yrotation
											JOINT RightHandIndex3
											{
												OFFSET -3.01859 0.00000 0.00000
												CHANNELS 3 Zrotation Xrotation Yrotation
												End site
												{
													OFFSET 0.00000 0.00000 0.00000
												}
											}
										}
									}
									JOINT RightHandMiddle1
									{
										OFFSET -14.26970 0.00000 -0.09147
										CHANNELS 3 Zrotation Xrotation Yrotation
										JOINT RightHandMiddle2
										{
											OFFSET -6.17441 0.00000 0.00000
											CHANNELS 3 Zrotation Xrotation Yrotation
											JOINT RightHandMiddle3
											{
												OFFSET -3.56743 0.00000 0.00000
												CHANNELS 3 Zrotation Xrotation Yrotation
												End site
												{
													OFFSET 0.00000 0.00000 0.00000
												}
											}
										}
									}
									JOINT RightHandRing1
									{
										OFFSET -12.69180 0.00000 -3.06433
										CHANNELS 3 Zrotation Xrotation Yrotation
										JOINT RightHandRing2
										{
											OFFSET -5.62556 0.00000 0.00000
											CHANNELS 3 Zrotation Xrotation Yrotation
											JOINT RightHandRing3
											{
												OFFSET -3.56744 0.00000 0.00000
												CHANNELS 3 Zrotation Xrotation Yrotation
												End site
												{
													OFFSET 0.00000 0.00000 0.00000
												}
											}
										}
									}
									JOINT RightHandPinky1
									{
										OFFSET -11.11390 0.00000 -6.03719
										CHANNELS 3 Zrotation Xrotation Yrotation
										JOINT RightHandPinky2
										{
											OFFSET -4.52789 0.00000 0.00000
											CHANNELS 3 Zrotation Xrotation Yrotation
											JOINT RightHandPinky3
											{
												OFFSET -2.46976 0.00000 0.00000
												CHANNELS 3 Zrotation Xrotation Yrotation
												End site
												{
													OFFSET 0.00000 0.00000 0.00000
												}
											}
										}
									}
								}
							}
						}
					}
					JOINT LeftShoulder
					{
						OFFSET 0.01000 7.91373 5.19711
						CHANNELS 3 Zrotation Xrotation Yrotation
						JOINT LeftArm
						{
							OFFSET 18.41580 0.00000 0.00000
							CHANNELS 3 Zrotation Xrotation Yrotation
							JOINT LeftForeArm
							{
								OFFSET 29.11090 0.00000 0.00000
								CHANNELS 3 Zrotation Xrotation Yrotation
								JOINT LeftHand
								{
									OFFSET 24.65040 0.00000 0.00000
									CHANNELS 3 Zrotation Xrotation Yrotation
									JOINT LeftHandThumb1
									{
										OFFSET 5.35114 -0.85590 3.97906
										CHANNELS 3 Zrotation Xrotation Yrotation
										JOINT LeftHandThumb2
										{
											OFFSET 4.52789 0.00000 0.00000
											CHANNELS 3 Zrotation Xrotation Yrotation
											JOINT LeftHandThumb3
											{
												OFFSET 2.46977 0.00000 0.00000
												CHANNELS 3 Zrotation Xrotation Yrotation
												End site
												{
													OFFSET 0.00000 0.00000 0.00000
												}
											}
										}
									}
									JOINT LeftHandIndex1
									{
										OFFSET 14.26970 0.00000 2.88139
										CHANNELS 3 Zrotation Xrotation Yrotation
										JOINT LeftHandIndex2
										{
											OFFSET 5.48836 0.00000 0.00000
											CHANNELS 3 Zrotation Xrotation Yrotation
											JOINT LeftHandIndex3
											{
												OFFSET 3.01859 0.00000 0.00000
												CHANNELS 3 Zrotation Xrotation Yrotation
												End site
												{
													OFFSET 0.00000 0.00000 0.00000
												}
											}
										}
									}
									JOINT LeftHandMiddle1
									{
										OFFSET 14.26970 0.00000 -0.09147
										CHANNELS 3 Zrotation Xrotation Yrotation
										JOINT LeftHandMiddle2
										{
											OFFSET 6.17440 0.00000 0.00000
											CHANNELS 3 Zrotation Xrotation Yrotation
											JOINT LeftHandMiddle3
											{
												OFFSET 3.56744 0.00000 0.00000
												CHANNELS 3 Zrotation Xrotation Yrotation
												End site
												{
													OFFSET 0.00000 0.00000 0.00000
												}
											}
										}
									}
									JOINT LeftHandRing1
									{
										OFFSET 12.69180 0.00000 -3.06433
										CHANNELS 3 Zrotation Xrotation Yrotation
										JOINT LeftHandRing2
										{
											OFFSET 5.62556 0.00000 0.00000
											CHANNELS 3 Zrotation Xrotation Yrotation
											JOINT LeftHandRing3
											{
												OFFSET 3.56744 0.00000 0.00000
												CHANNELS 3 Zrotation Xrotation Yrotation
												End site
												{
													OFFSET 0.00000 0.00000 0.00000
												}
											}
										}
									}
									JOINT LeftHandPinky1
									{
										OFFSET 11.11390 0.00000 -6.03719
										CHANNELS 3 Zrotation Xrotation Yrotation
										JOINT LeftHandPinky2
										{
											OFFSET 4.52789 0.00000 0.00000
											CHANNELS 3 Zrotation Xrotation Yrotation
											JOINT LeftHandPinky3
											{
												OFFSET 2.46976 0.00000 0.00000
												CHANNELS 3 Zrotation Xrotation Yrotation
												End site
												{
													OFFSET 0.00000 0.00000 0.00000
												}
											}
										}
									}
								}
							}
						}
					}
					JOINT pCube4
					{
						OFFSET 0.00000 10.91090 1.10792
						CHANNELS 3 Zrotation Xrotation Yrotation
						End site
						{
							OFFSET 0.00000 0.00000 0.00000
						}
					}
				}
			}
		}
	}
	JOINT RightUpLeg
	{
		OFFSET -9.98441 0.00000 0.00000
		CHANNELS 3 Zrotation Xrotation Yrotation
		JOINT RightLeg
		{
			OFFSET 0.00000 -42.11790 0.00000
			CHANNELS 3 Zrotation Xrotation Yrotation
			JOINT RightFoot
			{
				OFFSET 0.00000 -45.00020 -0.00001
				CHANNELS 3 Zrotation Xrotation Yrotation
				JOINT RightForeFoot
				{
					OFFSET 0.00000 -3.74820 0.00000
					CHANNELS 3 Zrotation Xrotation Yrotation
					JOINT RightToeBase
					{
						OFFSET 0.00000 0.06325 14.43120
						CHANNELS 3 Zrotation Xrotation Yrotation
						End site
						{
							OFFSET 0.00000 0.00000 0.00000
						}
					}
				}
			}
		}
	}
	JOINT LeftUpLeg
	{
		OFFSET 9.98441 0.00000 0.00000
		CHANNELS 3 Zrotation Xrotation Yrotation
		JOINT LeftLeg
		{
			OFFSET 0.00000 -42.11800 0.00000
			CHANNELS 3 Zrotation Xrotation Yrotation
			JOINT LeftFoot
			{
				OFFSET 0.00000 -45.00070 0.00000
				CHANNELS 3 Zrotation Xrotation Yrotation
				JOINT LeftForeFoot
				{
					OFFSET 0.00000 -3.74824 0.00000
					CHANNELS 3 Zrotation Xrotation Yrotation
					JOINT LeftToeBase
					{
						OFFSET 0.00000 0.06325 14.43110
						CHANNELS 3 Zrotation Xrotation Yrotation
						End site
						{
							OFFSET 0.00000 0.00000 0.00000
						}
					}
				}
			}
		}
	}
}
MOTION
Frames: 4
Frame Time: 0.050000
-0.023959604225365944 0.019230916623250376 0.030924173720352617 -0.030977012404758045 -0.010017979346946539 0.010986809218196824 5.474663912616522 3.565999386870193 -2.177765127634344 -0.7734384102858567 3.6185488257948775 0.364780327387407 -0.5315295173212032 -1.0851649243869466 0.9078068298307814 -0.47940518656622494 -0.24205995422192636 -0.2510484402905867 -0.10479469165297008 12.691750677152882 -1.172415976210925 0.4064589570762862 -0.753596818737889 -2.233254193211042 0.8410605441488734 -17.535580443489334 -0.26682810894913706 -9.932645403328348 3.454914428205958 -17.897436354981828 83.814003615319 8.66097333071392 2.177389800717603 -4.244100062154819 7.354475818124684 44.16408041086444 17.608503022187215 -0.23517247811371844 -2.722846640447304 4.533667943342106 -0.12185284519342061 -1.5593644719105182 -0.006700972481994416 -0.00497943442792055 -56.25228789220407 -0.030977589364356566 0.0037758525190533018 -56.21246082481398 -38.79296860668912 0.023625290216876496 0.017214431830786445 -0.01928703129124152 0.022517564930670454 0.014035193927016593 -0.0007196031871546751 -0.04529473777567978 -0.027391931815058435 -36.71976765046461 0.023490239744127835 0.038806164589603745 0.02851926039372978 -0.03162691248770134 -0.046613011218575716 -0.025035793988708862 0.013278999098269373 0.011518938581300061 -19.739546294189797 0.036863477708809045 0.007072786360535273 -0.012186290357071946 -0.013207710174029403 -0.0370300237324042 0.027768697297500654 0.033076579214835165 -0.025482055423520146 24.06221662207179 0.04610683511868068 -0.01586647012234204 28.885301196992245 -0.030142271229391518 0.0011677204713244098 28.885383391401064 -0.023485996078286837 -0.01469244738601949 10.072897565106484 2.420796094452342 15.199723588677612 -78.40404887886325 17.732752304468512 -12.6264065328493 2.202097464140937 7.192422265705481 -45.83507271975534 -18.99313047610592 -0.8069442052937736 0.8270089452601516 -0.5186410837245549 0.05202928113647071 -8.127011607695573 0.01012575082192072 -0.029812389551221164 44.53357009264821 -0.028676250745262772 -0.02912440152172546 44.52292628931804 12.445582344039611 -0.0378368751272251 0.011622733105441195 -0.03984838319672071 0.0027407906141562956 -0.010599992639261802 0.025728784380544933 -0.017524591607189458 -0.0023867491881355645 11.126829124404896 -0.03149801490022419 -0.02976443633012896 -0.04176520412832224 0.010873049155479916 0.04945555007448104 -0.009029984270357989 0.03712907468484648 0.04485722408708896 4.791161324570108 -0.033939355663606674 -0.049739770747123914 0.03619676522970932 0.03250569805758235 0.029383865637092457 0.02809900200823494 0.01471036610304151 0.02070638253587612 -5.570020995168232 -0.010323132564456888 0.043948767918590176 -6.686323315508119 0.011801335403278938 -0.011287437423918769 -6.76319890035852 0.03267534243098773 0.01732804930538327 0.01773457517117831 0.012013547998618304 -0.037142523740035 8.083395440644908 3.478580819885613 -19.227363066489094 0.035476993522371984 10.399838552961267 -0.010857709663570577 -5.6441673690377625 -15.666813433893317 3.2419815689940776 0.024244267226972916 -0.015260012500919715 0.04908199814073629 0.021421081312272133 4.684210443145695 -0.014089202201060306 12.450065350623753 -8.231162631013593 6.907612789639152 0.004902044166079379 46.362287239711804 0.020204380339619663 -4.310720805049741 -14.71791673566655 -3.8385475321581475 0.007313917345704435 -0.016003495527626796 0.04894474478820108 0.02940640650449235 -10.770489681988701 -0.03034961472279099 
-0.026758304775393035 0.029256613486021512 0.021100380794015532 -0.037270657041850376 0.025392939668620457 -0.016561467219204814 5.505658553593681 3.414351832176951 -2.1997020445304396 -0.7738920835259173 3.6563612765465647 0.3553334729356684 -0.574334795350482 -1.1397521237860921 0.8156037470926529 -0.5811053934202731 -0.34841317315162507 -0.23982676870347164 -0.27984623158206107 13.054097870915047 -0.9507851115738867 0.41607660245162464 -0.6913656804114201 -1.6028059758096953 0.8519830037876932 -17.433718286414646 -0.18993614444676554 -10.069617818716777 3.5470392319806874 -17.964987886238482 83.86733503635435 8.437527977426218 2.452983525796656 -4.189080325642835 7.550433190433345 44.26243149212622 17.7319679537764 -0.2263877879085232 -2.523708227930554 4.512410394236293 -0.14039129338349152 -1.5435394679165937 -0.041940589030070904 0.01021270375151545 -56.22255635367078 -0.021623749805546957 0.02464108364353357 -56.19619765919717 -38.74398374366784 -0.01344302560946132 -0.0373695547784176 -0.0195423366112613 0.04302075854075651 0.037784381389540385 -0.0070748511441072436 0.0011942357496783093 -0.0481965869110309 -36.65066831427075 -0.0009718826071786576 -0.01903661794481443 -0.003139918068794748 -0.009045036110740463 -0.032014007914984904 -0.021529153438213804 0.023257370304984645 0.025755659736852957 -19.70930011705303 -0.03340129899448055 -0.01991272593459965 0.0070124867882142075 0.036898246782891 -0.03373489123540585 -0.04153858926147697 0.012749701946445665 0.03422398363144009 24.062944032122836 0.01654162656116702 -0.029246478623909535 28.848755077437524 -0.00690715696711223 -0.03425907936451436 28.88808628063225 -0.022422525909282256 -0.039605077685483284 10.888312638704724 2.5904343276952297 15.419194952371553 -79.08950206782875 15.671343455503411 -16.713960367897087 0.540849329406924 9.474792510958242 -50.78931029264508 -18.13987851326764 -0.39398864791187027 0.14636398054528701 -0.4841266958536807 0.046043888260467646 -8.119483386093739 -0.012382299799003687 0.013063785074361144 44.616953057474504 0.015553999628612978 -0.031282145351075416 44.550941564705425 12.473380884848284 0.013897949690100208 0.04630074573063656 -0.029058213349465782 0.026006442469329906 0.033021952626382224 -0.002962835463522454 -0.04618176153921573 0.034169190148102026 11.101533306179343 -0.014618552745756306 0.04637590866348987 0.0062599944079487525 -0.027525297230913695 -0.030685513833001603 0.048843787546003485 0.012063062551483653 0.039279921644724373 4.784978818029271 -0.033474662430712766 -0.005561291576024511 -0.01805077873350458 -0.02655977412110074 -0.0025013655490836 -0.004782472149953822 -0.009626507256305839 -0.021826964112490094 -5.614596362508339 -0.007087471647521126 0.04991425400573413 -6.743056240920158 -0.03216928993023671 -0.02644785557656803 -6.73618879631575 0.025626329370662355 -0.036260980522367016 0.008481885920301642 0.007377850039316821 -0.0062607328548183 8.011783705795372 3.5134224517485957 -19.204695996950665 0.02713003305409236 10.428946789875932 -0.005538296002910614 -5.6010633335547 -15.709250691045881 3.2398232737106984 0.011723887647332688 0.02022108571466411 0.032144145988416584 0.031569395218758435 4.741304381566505 -0.0023412986627155035 12.460094709844407 -8.195972184901432 6.880603980841331 -0.006280080273783106 46.4143446756551 -0.005030474521010126 -4.3133668482394745 -14.767902034235126 -3.864039281133415 0.001475021946368736 0.010674393076091483 -0.03141039204897397 0.028254521953793344 -10.791972445802367 -0.00831994302534078 
0.0023299313351056784 -0.002735782634652362 0.013749259481155428 0.040146374087781406 -0.025498326154256568 -0.03289697142869054 5.580431313397824 3.314330652557043 -2.2700375682857312 -0.7754145026991224 3.649233545639597 0.3989307628744914 -0.5044786320386575 -1.1302235046690334 0.6707671801976604 -0.5781309362566479 -0.3279021892600372 -0.24681378563215656 -0.4762969605828596 13.479079677634495 -0.8860807130702464 0.3541068573793327 -0.5635033591129729 -1.150228309627077 0.6985331072814898 -17.371992179651475 -0.09968059759484894 -10.224638058285672 3.5272690888182607 -18.014933053075758 83.77612870910107 7.964350462788232 2.813192156311205 -4.143217796573976 7.669181158167966 44.22889584808287 17.87846991278901 -0.21079890850138794 -2.408032607306961 4.522093022846215 -0.10741891309492724 -1.5849917440808303 -0.04533865964313019 0.03873736099049985 -56.19960800628041 -0.03919746082120216 0.047610045579724196 -56.21947749848662 -38.77511678793416 0.006072630689686231 -0.030008135577933543 -0.009741316299276237 0.016829919260186742 -0.02340853354318024 0.018628343639865628 0.004966552229057084 -0.0409825441934239 -36.72944135388813 -0.01619740026927221 -0.02756358148256492 0.015669349840861855 0.036533859348391935 0.021850718981524214 0.047410903853970864 0.02913823298620258 0.02092326066356559 -19.74515756802717 -0.0021915940379206383 0.0035065543409867153 0.011443878495913868 0.04015887003689491 0.028117246040478494 -0.012769630391215682 -0.03736156836637213 -0.007264092734170845 24.02286077124286 0.003922939598750413 -0.04463909650560936 28.828984162063332 0.027456417416858593 -0.0026702408313295446 28.828429779878018 -0.01967274052115316 -0.02396383545877122 11.678474221123912 2.664064190505069 15.689822781413925 -79.60676295939786 12.929375322206596 -21.328433251498847 -0.890140267597559 11.6590041793503 -56.29711026798583 -16.88279587034526 0.3614264027686371 -0.7903365706297578 -0.49256565458669593 0.01848977901845591 -8.07979849151044 -0.03371428266624689 0.004444371181490416 44.5533477137357 -0.04252301036415688 0.043443812063606826 44.54620600359179 12.482826761792435 -0.02497604851728169 -0.04859682733699077 -0.0011962937385066085 -0.017147480649517953 0.03389450337016066 0.01572281025903824 -0.014719713384133077 -0.022462753284274526 11.07139379800325 0.009388820368323987 -0.030541841903579975 0.015253379934562702 -0.04258429562344131 -0.03101494795723864 0.002949308173450064 -0.04321688414881752 0.036955343078820584 4.7637787826922295 -0.011232973373705043 0.01732199981423252 0.01316673002690333 0.03967453235489515 0.023111931708914794 -0.037611297980076806 -0.022644387280070316 0.0036270944769203504 -5.611405034837121 0.01951704697754669 -0.037734549923028465 -6.729406807388377 0.03455369195852597 0.01374913130848606 -6.717553497294292 -0.015384486941076784 0.028469790320874554 0.043507281355468566 -0.04715677479986426 -0.0315618912948023 8.088818451732783 3.505258196846276 -19.235358110229424 -0.02728787753865138 10.373580007233167 -0.010290086787906584 -5.577182261919063 -15.62076142355057 3.1530280963865964 -0.027322073561769123 -0.042579687334783484 -0.03783381031882861 -0.021753747412378694 4.738442120615408 -0.016663302504013804 12.42710065388561 -8.230801877394134 6.847712848713241 -0.04819128282075661 46.42015533232835 0.028305210749508435 -4.356847633127624 -14.700801919256241 -3.7868723123817607 -0.024414043887606103 0.01236500809173418 0.015361678796910454 0.040948476225042156 -10.771959674190363 0.04309450693825794 
-0.04467522199132034 -0.037406312452702026 -0.005977324204177056 0.04090982684551836 0.018292849705016125 -0.02924125966992011 5.623065317588076 3.280635640923018 -2.2389380040897384 -0.7129464507321881 3.641523996962278 0.3387081848085929 -0.4549759015581032 -1.20465770637328 0.5110565482085945 -0.557645782366394 -0.35812114967141445 -0.24746973228735225 -0.6299659281933965 13.642793975030258 -0.815994582735249 0.36518523340690345 -0.5652122178968361 -0.8294265522175938 0.7057492560820724 -17.352047333881693 -0.1522403777411807 -10.240610036757767 3.5335114000434826 -18.028825233993754 83.75685457641791 7.8947891083680535 2.8186034624813785 -4.063377509723347 7.6367415556414615 43.996576612358716 17.980465462602794 -0.19933864367983384 -2.277993046993148 4.552613936702642 -0.13949749495023164 -1.6111549798903169 0.048817697626988545 -0.008027901883902884 -56.26001136800776 -0.015594333769293162 -0.0021267928900009234 -56.255633861319666 -38.802703813156846 -0.02805830379748982 -0.02725476875369099 0.012197428872336134 0.018718107319606044 -0.03855745655711531 -0.0356156560048287 -0.0492405557995169 -0.03479109164831433 -36.6961774285795 0.0014398978258241973 0.004673477172341444 0.047508456608537246 -0.022357296389417344 0.006856098093874645 -0.0328437343800732 -0.02671550030877659 0.030094257816592238 -19.747436324033444 0.0033112566219207573 0.0026761987124140772 0.02848926966781779 0.018046455321790264 0.005698810935022977 0.008755874020142836 -0.013693299303008838 -0.03728681300537019 24.06410439884167 -0.010910356791618557 0.03366353999276056 28.855106999960316 -0.028799234519013568 -0.006512549515404275 28.843655177842127 0.02168231986069921 -0.04125941361441327 12.28695969987889 2.7835044838115897 15.849769502656429 -79.83714237410186 10.95501735497952 -24.7026943087293 -1.6746604443593882 13.188964521912663 -60.52659601544363 -15.727314216280961 1.029145799596817 -1.6543515074258872 -0.5073942951397278 0.0877029771491727 -8.137723422048003 0.03381977006318031 0.01706984781170064 44.59417036550375 -0.02386047941838847 0.023120427979077724 44.53342921715359 12.495721191435202 0.01404109254435856 -0.03630921323296398 -0.045995556264534006 -0.023248979136148505 -0.043972039461315386 -0.016662084925988547 -0.02154689264577728 0.027011632709367815 11.139194530158472 0.008411728241239902 -0.023000791762049173 -0.026892571163930557 -0.0363986890646638 0.023219810057952425 0.009973569494406219 -0.01192809679981866 0.03456181683143301 4.774914484340611 0.009228402060316394 -0.003341389963781438 -0.002751669291434614 0.0028485972893305387 0.006863689907867482 -0.009350079251053071 -0.024634249277768933 -0.018313635858372274 -5.59251604861873 0.0172306339006812 -0.015027886457165822 -6.731132339709507 0.04373811315076901 0.0030621177126187752 -6.708131269798014 -0.02823172142958283 0.002686549479555675 0.029327767424670283 0.0034940253649121847 0.0035529392519435964 8.064530151768905 3.505967224504467 -19.262541590479028 -0.017091342107114424 10.347621903732119 0.06019228373419816 -5.579175142262289 -15.669978048064445 3.1609396791327797 0.03698261707578119 0.01609647606900825 0.012320505563678037 0.04488377582894091 4.723593574473567 0.017168665448547966 12.446231369203927 -8.238134359685393 6.904676793944977 0.0015621142245827427 46.392102401025745 -0.01203771580455092 -4.320847436217826 -14.769911627840504 -3.846425276140535 -0.027513428817905333 0.03311524124216909 0.03201368632818246 -0.001004818563753244 -10.742810599470902 -0.02646073562024161 
